<svg width="25" height="25" viewBox="0 0 25 25" fill="none" xmlns="http://www.w3.org/2000/svg">
<path d="M25 12.5C25 19.4036 19.4036 25 12.5 25C5.59642 25 0 19.4036 0 12.5C0 5.59642 5.59642 0 12.5 0C19.4036 0 25 5.59642 25 12.5ZM17.8603 10.7193C18.1092 9.056 16.8426 8.16185 15.1108 7.56537L15.6726 5.31225L14.301 4.97046L13.7541 7.16421C13.3935 7.07434 13.0231 6.98962 12.6551 6.90564L13.206 4.69748L11.8351 4.3557L11.273 6.60801C10.9745 6.54002 10.6815 6.47283 10.3971 6.40217L10.3987 6.39511L8.50706 5.92283L8.14219 7.38765C8.14219 7.38765 9.15988 7.62087 9.13841 7.63528C9.69395 7.77394 9.79435 8.14153 9.77752 8.43291L9.1376 10.9997C9.17591 11.0095 9.2255 11.0235 9.28019 11.0454C9.23448 11.0341 9.18563 11.0216 9.13523 11.0095L8.23826 14.6051C8.17026 14.7739 7.99798 15.027 7.60968 14.9309C7.62334 14.9509 6.6127 14.6821 6.6127 14.6821L5.93175 16.252L7.71673 16.6969C8.04879 16.7801 8.37424 16.8672 8.69456 16.9492L8.12692 19.2281L9.49698 19.5699L10.0591 17.3152C10.4225 17.4137 10.7868 17.5082 11.1522 17.5988L10.592 19.8429L11.9636 20.1847L12.5312 17.9101C14.8702 18.3527 16.629 18.1742 17.3693 16.059C17.9658 14.3558 17.3396 13.3734 16.109 12.7328C17.0051 12.5263 17.6802 11.9368 17.8603 10.7193ZM14.7264 15.1134C14.3025 16.8165 11.4347 15.8958 10.5049 15.6649L11.2581 12.6458C12.1879 12.8778 15.1694 13.3372 14.7264 15.1134ZM15.1507 10.6947C14.7639 12.2439 12.3769 11.4568 11.6026 11.2638L12.2855 8.52555C13.0598 8.7185 15.5534 9.07863 15.1507 10.6947Z" fill="#F1AC21"/>
</svg>
