<svg width="45" height="45" viewBox="0 0 45 45" fill="none" xmlns="http://www.w3.org/2000/svg">
<g filter="url(#filter0_d)">
<circle cx="22.5" cy="18.4999" r="13.5" transform="rotate(-118.672 22.5 18.4999)" fill="url(#paint0_linear)"/>
</g>
<path d="M27.76 17.3438C27.8497 17.1049 27.9 16.8438 27.9 16.5714C27.9 15.3884 26.9594 14.4286 25.8 14.4286C25.3691 14.4286 24.9666 14.5625 24.6341 14.7902C24.0281 13.7187 22.8972 13 21.6 13C19.6662 13 18.1 14.5982 18.1 16.5714C18.1 16.6317 18.1022 16.692 18.1044 16.7522C16.8794 17.192 16 18.3839 16 19.7857C16 21.5603 17.4109 23 19.15 23H27.2C28.7466 23 30 21.721 30 20.1429C30 18.7612 29.0375 17.6071 27.76 17.3438ZM24.6056 18.7143H23.175V21.2143C23.175 21.4107 23.0175 21.5714 22.825 21.5714H21.775C21.5825 21.5714 21.425 21.4107 21.425 21.2143V18.7143H19.9944C19.6816 18.7143 19.5262 18.3304 19.7472 18.1049L22.0528 15.7522C22.1884 15.6138 22.4116 15.6138 22.5472 15.7522L24.8528 18.1049C25.0738 18.3304 24.9162 18.7143 24.6056 18.7143V18.7143Z" fill="white"/>
<defs>
<filter id="filter0_d" x="0.178223" y="0.178223" width="44.6437" height="44.6437" filterUnits="userSpaceOnUse" color-interpolation-filters="sRGB">
<feFlood flood-opacity="0" result="BackgroundImageFix"/>
<feColorMatrix in="SourceAlpha" type="matrix" values="0 0 0 0 0 0 0 0 0 0 0 0 0 0 0 0 0 0 127 0"/>
<feOffset dy="4"/>
<feGaussianBlur stdDeviation="2"/>
<feColorMatrix type="matrix" values="0 0 0 0 0 0 0 0 0 0 0 0 0 0 0 0 0 0 0.25 0"/>
<feBlend mode="normal" in2="BackgroundImageFix" result="effect1_dropShadow"/>
<feBlend mode="normal" in="SourceGraphic" in2="effect1_dropShadow" result="shape"/>
</filter>
<linearGradient id="paint0_linear" x1="22.5" y1="4.99992" x2="22.5" y2="31.9999" gradientUnits="userSpaceOnUse">
<stop stop-color="#D378CA"/>
<stop offset="1" stop-color="#8976E6"/>
</linearGradient>
</defs>
</svg>
